<?xml version="1.0" encoding="utf-8"?>
<svg xmlns="http://www.w3.org/2000/svg" width="356" height="356" viewBox="0 0 356 356" fill="none">
<path d="M298.25 228.38C300.336 204.74 293.949 181.85 311.413 165.089L322.23 154.708C337.001 140.498 345.296 121.245 345.296 101.173C345.296 81.101 337.001 61.8486 322.23 47.6388L297.989 24.374L280.525 41.1347C261.106 41.635 241.819 49.0148 226.962 63.274L224.224 65.7754C206.792 82.5074 183.757 92.7857 159.193 94.7939C126.61 97.4204 96.1146 111.054 72.9167 133.319C54.5401 150.928 41.8036 173.221 36.2144 197.56C30.6251 221.899 32.417 247.265 41.3778 270.657L32.5156 279.162L65.7487 311.058C78.3844 323.194 93.3881 332.822 109.903 339.39C126.416 345.959 144.117 349.34 161.994 349.34C179.871 349.34 197.572 345.959 214.086 339.39C230.6 332.822 245.604 323.194 258.24 311.058C281.307 288.918 295.512 259.65 298.25 228.38Z" fill="#244C4E"/>
<path d="M242.203 19.0947C256.139 19.105 269.76 23.2479 281.344 31.0001C292.928 38.7524 301.957 49.7663 307.291 62.6508C312.625 75.5352 314.023 89.7123 311.31 103.392C308.596 117.072 301.893 129.639 292.046 139.508L289.581 141.976C273.987 157.568 264.422 178.186 262.583 200.169C260.102 229.31 247.415 256.638 226.758 277.327C215.472 288.662 202.06 297.652 187.292 303.782C172.523 309.911 156.69 313.061 140.702 313.049C109.55 313.049 78.3984 301.099 54.6452 277.327C43.3494 266.028 34.3887 252.614 28.2751 237.847C22.1615 223.081 19.0148 207.254 19.0148 191.271C19.0148 175.288 22.1615 159.463 28.2751 144.696C34.3887 129.93 43.3494 116.514 54.6452 105.215C75.3057 84.5251 102.62 71.8236 131.745 69.3644C153.681 67.5459 174.319 57.9336 189.894 42.3461L192.361 39.878C198.875 33.2764 206.636 28.0385 215.194 24.4702C223.752 20.902 232.934 19.0746 242.203 19.0947ZM242.203 8.53343e-05C218.321 8.53343e-05 195.737 9.35258 178.862 26.239L176.526 28.707C164.195 41.0472 147.71 48.7109 130.188 50.2697C96.5701 53.1275 65.0291 67.8056 41.2761 91.5771C28.1682 104.638 17.7726 120.163 10.6885 137.263C3.60444 154.363 -0.0280524 172.697 0.000163118 191.207C0.000163118 228.876 14.6673 264.208 41.2761 290.836C67.8847 317.466 103.19 332.143 140.831 332.143C178.472 332.143 213.779 317.466 240.387 290.836C264.14 267.066 278.937 235.372 281.792 201.858C283.243 184.33 290.882 167.891 303.339 155.485L305.806 153.017C314.139 144.705 320.746 134.825 325.244 123.945C329.744 113.066 332.049 101.403 332.025 89.6277C332.025 65.7273 322.679 43.1255 305.806 26.239C288.916 9.40461 266.04 -0.032738 242.203 8.53343e-05Z" fill="#337D63"/>
<path d="M289.654 141.963L292.119 139.494C298.666 132.946 303.859 125.168 307.401 116.61C310.945 108.051 312.768 98.8781 312.768 89.6145C312.768 80.3508 310.945 71.1779 307.401 62.6195C303.859 54.0609 298.666 46.2848 292.119 39.7349C285.575 33.1837 277.804 27.9869 269.252 24.4414C260.7 20.8957 251.535 19.0708 242.277 19.0708C233.02 19.0708 223.853 20.8957 215.301 24.4414C206.749 27.9869 198.979 33.1837 192.434 39.7349L189.969 42.2029C174.387 57.8078 153.784 67.3806 131.819 69.2213C102.693 71.6805 75.3788 84.3814 54.7185 105.073C43.4225 116.372 34.4617 129.788 28.3482 144.553C22.2346 159.319 19.0879 175.146 19.0879 191.129C19.0879 207.112 22.2346 222.939 28.3482 237.704C34.4617 252.47 43.4225 265.886 54.7185 277.185C66.0091 288.489 79.4147 297.456 94.1694 303.574C108.924 309.693 124.738 312.842 140.709 312.842C156.68 312.842 172.495 309.693 187.251 303.574C202.004 297.456 215.41 288.489 226.701 277.185C247.377 256.509 260.068 229.174 262.526 200.027C264.472 178.205 274.078 157.55 289.654 141.963Z" fill="#89BA4F"/>
<path d="M289.654 141.963L292.119 139.494C298.666 132.946 303.859 125.168 307.401 116.61C310.945 108.051 312.768 98.8781 312.768 89.6145C312.768 80.3508 310.945 71.1779 307.401 62.6195C303.859 54.0609 298.666 46.2848 292.119 39.7349C285.575 33.1837 277.804 27.9869 269.252 24.4414C260.7 20.8957 251.535 19.0708 242.277 19.0708C233.02 19.0708 223.853 20.8957 215.301 24.4414C206.749 27.9869 198.979 33.1837 192.434 39.7349L189.969 42.2029C174.387 57.8078 153.784 67.3806 131.819 69.2213C102.693 71.6805 75.3788 84.3814 54.7185 105.073C43.4225 116.372 34.4617 129.788 28.3482 144.553C22.2346 159.319 19.0879 175.146 19.0879 191.129C19.0879 207.112 22.2346 222.939 28.3482 237.704C34.4617 252.47 43.4225 265.886 54.7185 277.185C66.0091 288.489 79.4147 297.456 94.1694 303.574C108.924 309.693 124.738 312.842 140.709 312.842C156.68 312.842 172.495 309.693 187.251 303.574C202.004 297.456 215.41 288.489 226.701 277.185C247.377 256.509 260.068 229.174 262.526 200.027C264.472 178.205 274.078 157.55 289.654 141.963Z" fill="#9EEA6C"/>
<path d="M146.524 242.755C161.534 242.755 175.929 236.788 186.542 226.167C197.155 215.546 203.117 201.141 203.117 186.121C203.117 171.1 197.155 156.695 186.542 146.074C175.929 135.453 161.534 129.486 146.524 129.486C131.516 129.486 117.121 135.453 106.508 146.074C95.895 156.695 89.9326 171.1 89.9326 186.121C89.9326 201.141 95.895 215.546 106.508 226.167C117.121 236.788 131.516 242.755 146.524 242.755Z" fill="#804B35"/>
</svg>