<svg xmlns="http://www.w3.org/2000/svg" viewBox="0 0 640 240" role="img" aria-labelledby="title">
  <title id="title">Correios</title>
  <rect width="640" height="240" rx="28" fill="#f4f8fb"/>
  <g transform="translate(132 22)">
    <path d="M152 16h134c18 0 28 21 17 35l-75 91c-8 10-20 16-33 16H61c-18 0-28-21-17-35l75-91c8-10 20-16 33-16z" fill="#0079bd"/>
    <path d="M80 62h134c18 0 28 21 17 35l-74 91c-9 10-21 16-34 16H-11c-18 0-28-21-17-35l75-91c8-10 20-16 33-16z" fill="#f4c600"/>
    <path d="M148 16h138c18 0 28 21 17 35l-73 88H92z" fill="#003e62" opacity=".92"/>
    <path d="M80 62h134c18 0 28 21 17 35l-74 91H20z" fill="#d39c00" opacity=".78"/>
  </g>
  <text x="320" y="216" text-anchor="middle" fill="#003e62" font-family="Arial, Helvetica, sans-serif" font-size="58" font-weight="800">Correios</text>
</svg>
