<svg xmlns="http://www.w3.org/2000/svg" viewBox="0 0 1024 640" role="img" aria-labelledby="title">
  <title id="title">Correios</title>
  <defs>
    <linearGradient id="blue" x1="420" y1="88" x2="740" y2="276" gradientUnits="userSpaceOnUse">
      <stop offset="0" stop-color="#003e62"/>
      <stop offset=".55" stop-color="#007fbd"/>
      <stop offset="1" stop-color="#29b7e6"/>
    </linearGradient>
    <linearGradient id="yellow" x1="230" y1="230" x2="515" y2="380" gradientUnits="userSpaceOnUse">
      <stop offset="0" stop-color="#f7df00"/>
      <stop offset=".62" stop-color="#f3c400"/>
      <stop offset="1" stop-color="#bd8500"/>
    </linearGradient>
  </defs>
  <rect width="1024" height="640" fill="#fff"/>
  <g transform="translate(0 12)">
    <path d="M438 52h205c18 0 35 9 45 24l82 121c8 12 5 29-7 38l-92 72H378l92-72c10-8 13-22 6-33L438 52z" fill="url(#blue)"/>
    <path d="M237 320 329 248h293l-92 72c-10 8-13 22-6 33l38 150H358c-18 0-35-9-45-24l-82-121c-8-12-5-29 6-38z" fill="url(#yellow)"/>
    <path d="M438 52h205c18 0 35 9 45 24l27 40H482z" fill="#003e62" opacity=".92"/>
    <path d="M329 248h293l-92 72c-10 8-13 22-6 33l-169 1z" fill="#d19a00" opacity=".78"/>
  </g>
  <text x="512" y="576" text-anchor="middle" fill="#004563" font-family="Arial, Helvetica, sans-serif" font-size="152" font-weight="800">Correios</text>
</svg>
